<mxfile host="Electron" modified="2024-04-19T16:27:58.888Z" agent="Mozilla/5.0 (Windows NT 10.0; Win64; x64) AppleWebKit/537.36 (KHTML, like Gecko) draw.io/24.2.5 Chrome/120.0.6099.109 Electron/28.1.0 Safari/537.36" etag="_MiDgNA3fgoI4BxnsYbW" version="24.2.5" type="device">
  <diagram id="DdV3MeijlD95FXW25RnP" name="Page-1">
    <mxGraphModel dx="2150" dy="827" grid="0" gridSize="10" guides="1" tooltips="1" connect="1" arrows="1" fold="1" page="1" pageScale="1" pageWidth="850" pageHeight="1100" background="#FFFFFF" math="0" shadow="0">
      <root>
        <object label="" id="0">
          <mxCell />
        </object>
        <mxCell id="1" parent="0" />
        <mxCell id="yksilsJ03aCu_ruoWfH2-12" style="edgeStyle=orthogonalEdgeStyle;rounded=0;orthogonalLoop=1;jettySize=auto;html=1;exitX=1;exitY=0.5;exitDx=0;exitDy=0;labelBackgroundColor=none;strokeColor=#23445D;fontColor=default;" parent="1" source="yksilsJ03aCu_ruoWfH2-3" target="yksilsJ03aCu_ruoWfH2-7" edge="1">
          <mxGeometry relative="1" as="geometry" />
        </mxCell>
        <mxCell id="yksilsJ03aCu_ruoWfH2-3" value="" style="rounded=0;whiteSpace=wrap;html=1;labelBackgroundColor=none;fillColor=#f5f5f5;strokeColor=#666666;fontColor=#333333;" parent="1" vertex="1">
          <mxGeometry x="-470" y="380" width="210" height="90" as="geometry" />
        </mxCell>
        <mxCell id="yksilsJ03aCu_ruoWfH2-4" value="Naavy Tokens" style="rounded=0;whiteSpace=wrap;html=1;labelBackgroundColor=none;fillColor=#f5f5f5;strokeColor=#666666;fontColor=#333333;fontStyle=1" parent="1" vertex="1">
          <mxGeometry x="-430" y="430" width="130" height="40" as="geometry" />
        </mxCell>
        <mxCell id="yksilsJ03aCu_ruoWfH2-6" value="&lt;font style=&quot;font-size: 18px;&quot;&gt;User&lt;/font&gt;" style="text;html=1;align=center;verticalAlign=middle;resizable=0;points=[];autosize=1;strokeColor=none;fillColor=none;labelBackgroundColor=none;fontColor=#000000;fontStyle=1" parent="1" vertex="1">
          <mxGeometry x="-393" y="393" width="56" height="34" as="geometry" />
        </mxCell>
        <mxCell id="yksilsJ03aCu_ruoWfH2-17" style="edgeStyle=orthogonalEdgeStyle;rounded=0;orthogonalLoop=1;jettySize=auto;html=1;exitX=1;exitY=0.5;exitDx=0;exitDy=0;entryX=0;entryY=0.5;entryDx=0;entryDy=0;labelBackgroundColor=none;strokeColor=#23445D;fontColor=default;" parent="1" source="yksilsJ03aCu_ruoWfH2-7" target="yksilsJ03aCu_ruoWfH2-13" edge="1">
          <mxGeometry relative="1" as="geometry" />
        </mxCell>
        <mxCell id="yksilsJ03aCu_ruoWfH2-18" style="edgeStyle=orthogonalEdgeStyle;rounded=0;orthogonalLoop=1;jettySize=auto;html=1;exitX=1;exitY=0.5;exitDx=0;exitDy=0;entryX=0;entryY=0.5;entryDx=0;entryDy=0;labelBackgroundColor=none;strokeColor=#23445D;fontColor=default;" parent="1" source="yksilsJ03aCu_ruoWfH2-7" target="yksilsJ03aCu_ruoWfH2-15" edge="1">
          <mxGeometry relative="1" as="geometry" />
        </mxCell>
        <mxCell id="yksilsJ03aCu_ruoWfH2-19" style="edgeStyle=orthogonalEdgeStyle;rounded=0;orthogonalLoop=1;jettySize=auto;html=1;exitX=1;exitY=0.5;exitDx=0;exitDy=0;entryX=0;entryY=0.5;entryDx=0;entryDy=0;labelBackgroundColor=none;strokeColor=#23445D;fontColor=default;" parent="1" source="yksilsJ03aCu_ruoWfH2-7" target="yksilsJ03aCu_ruoWfH2-14" edge="1">
          <mxGeometry relative="1" as="geometry" />
        </mxCell>
        <mxCell id="yksilsJ03aCu_ruoWfH2-7" value="" style="rounded=0;whiteSpace=wrap;html=1;labelBackgroundColor=none;fillColor=#f5f5f5;strokeColor=#666666;fontColor=#333333;" parent="1" vertex="1">
          <mxGeometry x="-120" y="180" width="260" height="430" as="geometry" />
        </mxCell>
        <mxCell id="yksilsJ03aCu_ruoWfH2-8" value="" style="rounded=0;whiteSpace=wrap;html=1;labelBackgroundColor=#6600CC;fillColor=#f5f5f5;strokeColor=#666666;fontColor=#333333;" parent="1" vertex="1">
          <mxGeometry x="-80" y="275" width="180" height="300" as="geometry" />
        </mxCell>
        <mxCell id="yksilsJ03aCu_ruoWfH2-9" value="Buy NFT" style="rounded=0;whiteSpace=wrap;html=1;labelBackgroundColor=#FFFFFF;fillColor=#f5f5f5;strokeColor=#666666;fontColor=#333333;fontStyle=1" parent="1" vertex="1">
          <mxGeometry x="-50" y="315" width="120" height="60" as="geometry" />
        </mxCell>
        <mxCell id="yksilsJ03aCu_ruoWfH2-10" value="Mint NFT" style="rounded=0;whiteSpace=wrap;html=1;labelBackgroundColor=none;fillColor=#f5f5f5;strokeColor=#666666;fontColor=#333333;fontStyle=1" parent="1" vertex="1">
          <mxGeometry x="-50" y="395" width="120" height="60" as="geometry" />
        </mxCell>
        <mxCell id="yksilsJ03aCu_ruoWfH2-11" value="Sell NFT" style="rounded=0;whiteSpace=wrap;html=1;labelBackgroundColor=none;fillColor=#f5f5f5;strokeColor=#666666;fontColor=#333333;fontStyle=1" parent="1" vertex="1">
          <mxGeometry x="-50" y="470" width="120" height="60" as="geometry" />
        </mxCell>
        <mxCell id="yksilsJ03aCu_ruoWfH2-13" value="Purchased" style="rounded=0;whiteSpace=wrap;html=1;labelBackgroundColor=none;fillColor=#f5f5f5;strokeColor=#666666;fontColor=#333333;fontStyle=1" parent="1" vertex="1">
          <mxGeometry x="230" y="310" width="120" height="60" as="geometry" />
        </mxCell>
        <mxCell id="yksilsJ03aCu_ruoWfH2-14" value="Mint!" style="rounded=0;whiteSpace=wrap;html=1;labelBackgroundColor=none;fillColor=#f5f5f5;strokeColor=#666666;fontColor=#333333;fontStyle=1" parent="1" vertex="1">
          <mxGeometry x="230" y="390" width="120" height="60" as="geometry" />
        </mxCell>
        <mxCell id="yksilsJ03aCu_ruoWfH2-15" value="Sold!" style="rounded=0;whiteSpace=wrap;html=1;labelBackgroundColor=none;fillColor=#f5f5f5;strokeColor=#666666;fontColor=#333333;fontStyle=1" parent="1" vertex="1">
          <mxGeometry x="230" y="480" width="120" height="60" as="geometry" />
        </mxCell>
        <mxCell id="yksilsJ03aCu_ruoWfH2-20" value="&lt;font style=&quot;font-size: 19px;&quot;&gt;NFTForge&lt;/font&gt;" style="text;html=1;align=center;verticalAlign=middle;resizable=1;points=[];autosize=1;movable=1;rotatable=1;deletable=1;editable=1;locked=0;connectable=1;labelBackgroundColor=#FFFFFF;fontColor=#333333;fontStyle=1;fillColor=#f5f5f5;strokeColor=#666666;" parent="1" vertex="1">
          <mxGeometry x="-52" y="198" width="105" height="35" as="geometry" />
        </mxCell>
      </root>
    </mxGraphModel>
  </diagram>
</mxfile>
